<!DOCTYPE svg PUBLIC "-//W3C//DTD SVG 1.1//EN" "http://www.w3.org/Graphics/SVG/1.1/DTD/svg11.dtd">
<!-- Uploaded to: SVG Repo, www.svgrepo.com, Transformed by: SVG Repo Mixer Tools -->
<svg fill="#e53935" width="800px" height="800px" viewBox="0 0 24 24" xmlns="http://www.w3.org/2000/svg">
<g id="SVGRepo_bgCarrier" stroke-width="0"/>
<g id="SVGRepo_tracerCarrier" stroke-linecap="round" stroke-linejoin="round"/>
<g id="SVGRepo_iconCarrier">
<path d="M16.539,6H13.156A2.682,2.682,0,0,1,16,4a1,1,0,0,0,0-2,4.686,4.686,0,0,0-4.9,4H7.461A3.254,3.254,0,0,0,5.014,7.16,4.395,4.395,0,0,0,4.55,12.1l4.539,8.079a3.239,3.239,0,0,0,5.822,0L19.45,12.1a4.395,4.395,0,0,0-.464-4.942A3.254,3.254,0,0,0,16.539,6ZM10.793,9.293l1-1a1,1,0,0,1,1.414,1.414l-1,1a1,1,0,0,1-1.414-1.414Zm-3.5,0,1-1A1,1,0,0,1,9.707,9.707l-1,1A1,1,0,1,1,7.293,9.293ZM9,15a1,1,0,0,1-.707-1.707l1-1a1,1,0,0,1,1.414,1.414l-1,1A1,1,0,0,1,9,15Zm4.207,2.707-1,1a1,1,0,0,1-1.414-1.414l1-1a1,1,0,0,1,1.414,1.414Zm2.5-4-1,1a1,1,0,0,1-1.414-1.414l1-1a1,1,0,0,1,1.414,1.414Zm1-4-1,1a1,1,0,0,1-1.414-1.414l1-1a1,1,0,0,1,1.414,1.414Z"/>
</g>
</svg>